<svg width="153" height="30" viewBox="0 0 153 30" fill="none" xmlns="http://www.w3.org/2000/svg">
<path d="M24.6391 5.38511L16.6505 0.772447C14.8635 -0.257482 12.6628 -0.257482 10.8759 0.772447L2.88732 5.38511C1.10035 6.41504 0 8.32084 0 10.3851V19.6148C0 21.6791 1.10035 23.585 2.88732 24.6149L10.8759 29.2276C12.6628 30.2575 14.8635 30.2575 16.6505 29.2276L24.6391 24.6149C26.426 23.585 27.5264 21.6791 27.5264 19.6148V10.3851C27.5264 8.32084 26.426 6.41504 24.6391 5.38511ZM23.6796 18.1668C23.6796 19.6985 22.8873 21.0717 21.5581 21.8376L15.6998 25.2135C15.0352 25.5964 14.3046 25.7856 13.5783 25.7856C12.8521 25.7856 12.1215 25.5964 11.4569 25.2135C10.3785 24.5929 9.66108 23.5673 9.42781 22.3877C8.99207 22.5374 8.53873 22.6166 8.08538 22.6166C7.35475 22.6166 6.62851 22.4273 5.9639 22.04C4.63468 21.2742 3.84242 19.901 3.84242 18.3693V11.6131C3.84242 10.0814 4.63468 8.7082 5.9639 7.94236C7.04225 7.32176 8.28784 7.21171 9.42781 7.59903C9.66548 6.41946 10.3785 5.39831 11.4569 4.77772C12.7861 4.01187 14.3706 4.01187 15.6998 4.77772L21.5581 8.15361C22.8873 8.91946 23.6796 10.2927 23.6796 11.8244C23.6796 13.0656 23.1514 14.1967 22.2447 14.989C23.1514 15.7812 23.6796 16.9124 23.6796 18.158V18.1668Z" fill="#101828"/>
<path d="M13.059 18.3604L20.2157 14.2363L20.6778 13.9722C21.4524 13.5276 21.9102 12.731 21.9102 11.8375C21.9102 10.944 21.448 10.1474 20.6778 9.70284L14.8195 6.32694C14.0449 5.88239 13.125 5.88239 12.3503 6.32694C11.5757 6.77148 11.1179 7.56812 11.1179 8.46161V8.48364L17.8829 12.3833C18.3054 12.6298 18.4507 13.1711 18.2086 13.5937C18.0458 13.8798 17.7465 14.0382 17.4384 14.0382C17.2887 14.0382 17.1347 13.9986 16.9938 13.9194L9.78873 9.76441C9.78873 9.76441 9.77992 9.75565 9.77112 9.75124L9.32657 9.49593C8.55192 9.05139 7.63204 9.05139 6.85739 9.49593C6.08274 9.94047 5.625 10.7372 5.625 11.6307V18.3868C5.625 19.2759 6.08714 20.0725 6.85739 20.5215C7.63204 20.966 8.55192 20.966 9.32657 20.5215L9.34418 20.5127V15.0109C9.34418 14.5223 9.74032 14.1262 10.2333 14.1262C10.7262 14.1262 11.1224 14.5223 11.1224 15.0109V21.0232V21.5558C11.1224 22.4449 11.5845 23.2459 12.3547 23.6905C13.1294 24.135 14.0493 24.135 14.8239 23.6905L20.6822 20.3146C21.4569 19.8701 21.9146 19.0734 21.9146 18.1799C21.9146 17.2864 21.4525 16.4898 20.6822 16.0452L20.6646 16.0364L13.9525 19.9053C13.8116 19.9845 13.662 20.0241 13.5079 20.0241C13.1998 20.0241 12.9005 19.8657 12.7377 19.5796C12.4912 19.157 12.6364 18.6113 13.0634 18.3692L13.059 18.3604Z" fill="#101828"/>
<path d="M46.973 14.3151C47.5672 13.9718 48.0689 13.5096 48.4739 12.9155C49.0725 12.0396 49.3718 11.0185 49.3718 9.8521C49.3718 8.85738 49.1297 7.92865 48.6455 7.06597C48.1614 6.2033 47.4659 5.51228 46.5549 4.98412C45.6438 4.45595 44.5478 4.19189 43.2626 4.19189H34.8867V25.6972H44.0108C45.3269 25.6972 46.4624 25.4419 47.4219 24.9357C48.3814 24.4296 49.1209 23.7165 49.6314 22.801C50.142 21.8855 50.4017 20.7984 50.4017 19.544C50.4017 18.1796 50.0188 17.0044 49.2529 16.0185C48.6719 15.2702 47.9105 14.7024 46.9774 14.3107L46.973 14.3151ZM37.5716 6.70508H43.2318C44.2485 6.70508 45.0672 6.99997 45.6966 7.58536C46.326 8.17075 46.6385 8.92781 46.6385 9.8565C46.6385 10.5255 46.4844 11.1065 46.1851 11.6038C45.8814 12.1012 45.4721 12.4885 44.9615 12.7614C44.4466 13.0343 43.8744 13.1708 43.2362 13.1708H37.576V6.70508H37.5716ZM47.1226 21.4762C46.7573 22.0132 46.2644 22.4313 45.635 22.7218C45.0056 23.0167 44.2969 23.1619 43.5003 23.1619H37.5716V15.6796H43.7996C44.5654 15.6796 45.2388 15.8512 45.8242 16.1945C46.4052 16.5378 46.8585 16.9999 47.1843 17.5765C47.5056 18.1531 47.6684 18.8046 47.6684 19.5308C47.6684 20.257 47.488 20.9348 47.1226 21.4718V21.4762Z" fill="#101828"/>
<path d="M54.7522 3.74756H52.0938V25.7018H54.7522V3.74756Z" fill="#101828"/>
<path d="M68.5963 10.2046C67.4299 9.48272 66.0435 9.12183 64.4281 9.12183C62.8128 9.12183 61.488 9.47836 60.3216 10.1914C59.1553 10.9044 58.2574 11.8947 57.6192 13.1712C56.981 14.4476 56.6641 15.9308 56.6641 17.621C56.6641 19.3111 56.9766 20.7591 57.606 22.0399C58.2354 23.3252 59.1288 24.3287 60.2864 25.0549C61.444 25.7812 62.826 26.1465 64.4325 26.1465C66.0391 26.1465 67.4211 25.7855 68.5831 25.0637C69.7494 24.3419 70.6429 23.3428 71.2723 22.062C71.9017 20.7812 72.2142 19.3023 72.2142 17.621C72.2142 15.9396 71.9017 14.4872 71.2811 13.2063C70.6605 11.9255 69.767 10.9264 68.6007 10.2046H68.5963ZM68.1649 21.9519C67.3507 23.0655 66.1051 23.6245 64.4325 23.6245C62.76 23.6245 61.5804 23.0787 60.7442 21.9827C59.9079 20.8868 59.4898 19.4343 59.4898 17.621C59.4898 16.4458 59.6702 15.4114 60.0267 14.5135C60.3832 13.6157 60.929 12.9158 61.6553 12.4097C62.3815 11.9035 63.3058 11.6482 64.4325 11.6482C66.0831 11.6482 67.3243 12.1896 68.1517 13.268C68.9792 14.3463 69.3929 15.7988 69.3929 17.621C69.3929 19.4431 68.9836 20.8384 68.1693 21.9519H68.1649Z" fill="#101828"/>
<path d="M78.1323 12.4141C78.8497 11.9035 79.7608 11.6438 80.8655 11.6438C81.8514 11.6438 82.7229 11.9035 83.4844 12.4185C84.2458 12.9379 84.796 13.6641 85.1349 14.5972L87.7625 13.8049C87.3444 12.3525 86.5213 11.2081 85.2889 10.3718C84.061 9.53555 82.5953 9.11743 80.8919 9.11743C79.281 9.11743 77.899 9.47397 76.7546 10.1914C75.6102 10.9088 74.73 11.9079 74.1182 13.1843C73.5064 14.4651 73.1895 15.944 73.1719 17.6254C73.1939 19.2671 73.502 20.7328 74.0962 22.018C74.6948 23.3032 75.5618 24.3111 76.7018 25.0417C77.8418 25.7724 79.2282 26.1377 80.8611 26.1377C82.4941 26.1377 83.9641 25.7372 85.1481 24.9449C86.3321 24.1483 87.2036 22.9995 87.7625 21.4942L85.0733 20.7944C84.7168 21.7099 84.1886 22.4097 83.4888 22.8939C82.7934 23.378 81.9175 23.6201 80.8611 23.6201C79.259 23.6201 78.053 23.0699 77.2388 21.9696C76.4289 20.8692 76.0108 19.4255 75.9932 17.6297C76.002 16.4634 76.1824 15.4335 76.5302 14.5312C76.8779 13.6289 77.4104 12.9246 78.1279 12.4097L78.1323 12.4141Z" fill="#101828"/>
<path d="M102.145 9.5704H98.694L91.929 17.3345V4.19189H89.2442L89.2266 25.6972H91.929V17.9331L99.2618 25.6972H102.981L95.0232 17.6338L102.145 9.5704Z" fill="#101828"/>
<path d="M106.334 3.74756H103.676V25.7018H106.334V3.74756Z" fill="#101828"/>
<path d="M120.157 10.244C119.017 9.49571 117.635 9.12598 116.011 9.12598C114.387 9.12598 113.088 9.4781 111.926 10.1779C110.764 10.8777 109.862 11.8769 109.215 13.1665C108.568 14.4561 108.242 15.9833 108.242 17.7439C108.242 19.5045 108.572 20.8953 109.228 22.1585C109.884 23.4173 110.804 24.3989 111.983 25.0987C113.163 25.7985 114.545 26.1506 116.13 26.1506C117.714 26.1506 119.105 25.7589 120.364 24.9799C121.622 24.1964 122.564 23.096 123.194 21.67L120.641 20.7897C120.192 21.7052 119.576 22.4094 118.788 22.8936C118 23.3821 117.076 23.6242 116.011 23.6242C114.426 23.6242 113.207 23.1004 112.353 22.0573C111.614 21.155 111.196 19.927 111.094 18.3821H123.467C123.546 16.4719 123.299 14.8214 122.727 13.4394C122.155 12.0573 121.297 10.9922 120.157 10.244ZM112.353 13.0961C113.207 12.0397 114.457 11.5116 116.103 11.5116C117.635 11.5116 118.792 12.0001 119.567 12.9816C120.179 13.7563 120.557 14.8478 120.703 16.2431H111.147C111.306 14.9359 111.711 13.8839 112.353 13.0916V13.0961Z" fill="#101828"/>
<path d="M135.448 17.5238C134.625 17.1013 133.502 16.7096 132.081 16.3531C130.817 16.0362 129.853 15.7501 129.189 15.5036C128.529 15.2527 128.075 14.9931 127.829 14.7114C127.587 14.4341 127.463 14.0996 127.463 13.7123C127.463 13.0168 127.789 12.4623 128.441 12.0529C129.092 11.6436 129.941 11.4587 130.989 11.4983C132.094 11.5292 132.996 11.7933 133.7 12.2906C134.404 12.788 134.818 13.4701 134.946 14.3372L137.666 13.8443C137.556 12.898 137.204 12.0705 136.614 11.3575C136.02 10.6444 135.241 10.0943 134.277 9.70694C133.313 9.31961 132.217 9.12598 130.993 9.12598C129.77 9.12598 128.674 9.31961 127.745 9.70694C126.812 10.0943 126.09 10.6444 125.571 11.3575C125.051 12.0705 124.796 12.898 124.796 13.8443C124.796 14.6101 124.972 15.2616 125.32 15.7985C125.668 16.3355 126.249 16.8108 127.067 17.2158C127.882 17.6251 129.004 18.0168 130.426 18.3954C131.742 18.7431 132.723 19.0423 133.375 19.2932C134.026 19.5441 134.457 19.8082 134.664 20.0943C134.871 20.376 134.977 20.7501 134.977 21.2078C134.977 21.9957 134.664 22.6163 134.035 23.0741C133.405 23.5318 132.543 23.7607 131.438 23.7607C130.272 23.7607 129.299 23.5054 128.511 22.9904C127.723 22.4798 127.221 21.7844 127.001 20.9086L124.281 21.3399C124.559 22.854 125.316 24.0291 126.544 24.8698C127.772 25.7105 129.347 26.133 131.271 26.133C133.194 26.133 134.858 25.6885 136.007 24.795C137.151 23.9059 137.723 22.6823 137.723 21.1286C137.723 20.2924 137.547 19.5881 137.199 19.0159C136.852 18.4437 136.266 17.9464 135.443 17.5238H135.448Z" fill="#101828"/>
<path d="M151.603 19.0159C151.255 18.4437 150.67 17.9464 149.847 17.5238C149.023 17.1013 147.901 16.7096 146.479 16.3531C145.216 16.0362 144.252 15.7501 143.588 15.5036C142.928 15.2527 142.474 14.9931 142.228 14.7114C141.986 14.4341 141.862 14.0996 141.862 13.7123C141.862 13.0168 142.188 12.4623 142.839 12.0529C143.491 11.6436 144.34 11.4587 145.384 11.4983C146.488 11.5292 147.391 11.7933 148.095 12.2906C148.795 12.788 149.213 13.4701 149.34 14.3372L152.06 13.8443C151.95 12.898 151.598 12.0705 151.009 11.3575C150.414 10.6444 149.635 10.0943 148.671 9.70694C147.707 9.31961 146.612 9.12598 145.388 9.12598C144.164 9.12598 143.073 9.31961 142.14 9.70694C141.207 10.0943 140.485 10.6444 139.965 11.3575C139.446 12.0705 139.191 12.898 139.191 13.8443C139.191 14.6101 139.367 15.2616 139.715 15.7985C140.062 16.3355 140.643 16.8108 141.462 17.2158C142.276 17.6251 143.398 18.0168 144.82 18.3954C146.136 18.7431 147.118 19.0423 147.769 19.2932C148.42 19.5441 148.852 19.8082 149.059 20.0943C149.27 20.376 149.371 20.7501 149.371 21.2078C149.371 21.9957 149.059 22.6163 148.429 23.0741C147.8 23.5318 146.937 23.7607 145.832 23.7607C144.666 23.7607 143.693 23.5054 142.906 22.9904C142.118 22.4798 141.616 21.7844 141.396 20.9086L138.676 21.3399C138.953 22.854 139.71 24.0291 140.938 24.8698C142.166 25.7105 143.742 26.133 145.665 26.133C147.589 26.133 149.252 25.6885 150.401 24.795C151.545 23.9059 152.118 22.6823 152.118 21.1286C152.118 20.2924 151.942 19.5881 151.594 19.0159H151.603Z" fill="#101828"/>
</svg>