<svg width="401" height="120" viewBox="0 0 401 120" fill="none" xmlns="http://www.w3.org/2000/svg">
<g clip-path="url(#clip0_1521_162)">
<path d="M306 105.4L316.8 102V13L306 16.4V105.4ZM181.9 51.4C188.7 51.4 194.9 54.4 198.9 59.4L203.3 49.3C197.5 43.8 189.9 41.2 181.9 41.2C163.4 41.2 150.6 55.8 150.7 72C150.8 89.5 164.6 103.8 181.9 103.8C190.7 103.8 197.3 101.2 202.3 97.5V85C197 90.3 189.4 93.4 182.8 93.4C172.8 93.4 161.5 85.3 161.5 71.9C161.5 59.5 171.2 51.4 181.9 51.4ZM253.5 41.1C235 41.1 224.2 55.7 224.2 71.9C224.2 89.4 238.1 103.7 255.4 103.7C264.2 103.7 270.8 101.1 275.8 97.4V85C270.5 90.3 262.9 93.4 256.3 93.4C247.4 93.4 237.7 87.9 235.7 76.3H282.9V72.2C282.7 54.9 271.4 41.1 253.5 41.1ZM369.7 41.1C352.4 41.1 338.4 55.1 338.4 72.4C338.4 89.7 352.4 103.7 369.7 103.7C387 103.7 401 89.7 401 72.4C401 55.1 387 41.1 369.7 41.1ZM253.6 51.4C262 51.4 270.9 56.7 271.6 66.8H235.6C236.3 56.6 245.2 51.4 253.6 51.4ZM369.7 93.4C358.1 93.4 348.7 84 348.7 72.4C348.7 60.8 358.1 51.4 369.7 51.4C381.3 51.4 390.7 60.8 390.7 72.4C390.7 84 381.4 93.4 369.7 93.4Z" fill="#1D1D1B"/>
<path d="M72.5001 81.8C91.5001 81.8 106.9 66.4 106.9 47.4C106.9 28.4 91.5001 13 72.5001 13C53.5001 13 38.1001 28.4 38.1001 47.4C38.1001 66.4 53.5001 81.8 72.5001 81.8ZM72.5001 94.3C46.6001 94.3 25.6001 73.3 25.6001 47.4C25.6001 21.5 46.6001 0.5 72.5001 0.5C98.4001 0.5 119.4 21.5 119.4 47.4C119.4 73.3 98.4001 94.3 72.5001 94.3Z" fill="#35D07F"/>
<path d="M47.5001 106.8C66.5001 106.8 81.9001 91.4 81.9001 72.4C81.9001 53.4 66.5001 38 47.5001 38C28.5001 38 13.1001 53.4 13.1001 72.4C13.1001 91.4 28.5001 106.8 47.5001 106.8ZM47.5001 119.3C21.6001 119.3 0.600098 98.3 0.600098 72.4C0.600098 46.5 21.6001 25.5 47.5001 25.5C73.4001 25.5 94.4001 46.5 94.4001 72.4C94.4001 98.3 73.4001 119.3 47.5001 119.3Z" fill="#FBCC5C"/>
<path d="M74.0001 94.3C77.3001 90.4 79.6001 85.7 80.8001 80.8C85.8001 79.6 90.4001 77.2 94.3001 74C94.1001 79.7 92.9001 85.4 90.7001 90.7C85.4001 92.9 79.8001 94.1 74.0001 94.3ZM39.1001 39C34.1001 40.2 29.5001 42.6 25.6001 45.8C25.8001 40.1 27.0001 34.4 29.2001 29.1C34.5001 26.9 40.1001 25.6 45.9001 25.5C42.7001 29.4 40.4001 34.1 39.1001 39Z" fill="#ECFF8F"/>
</g>
<defs>
<clipPath id="clip0_1521_162">
<rect width="401" height="120" fill="white"/>
</clipPath>
</defs>
</svg>
